<svg id="Layer_1" data-name="Layer 1" xmlns="http://www.w3.org/2000/svg" viewBox="0 0 3760.62 507.9"><defs><style>.cls-1{fill:#198aeb;}.cls-2{fill:#0130b8;}</style></defs><path class="cls-1" d="M-1614.91,320c10,0,20-.14,30-.15q88,0,176,.09c4.66,0,7-.61,7.77-6,2.21-14.91,7.47-28.92,14.31-42.34.65-1.28,1.74-2.46,1.38-4.43h-5.37q-77.48,0-155,.09c-4,0-5.43-.76-5.34-5.1.3-13.49.21-27,0-40.48,0-3.34.71-4.58,4.36-4.57q117,.15,234,0c3.43,0,4.61.9,4.56,4.44q-.18,16,.26,32a7.39,7.39,0,0,1-3.49,7.05c-19.88,13.84-33.37,32.3-39.35,55.89-6.62,26.17-3,51.1,9.45,74.95,17.9,34.39,44.68,60.63,75.76,82.91a406.12,406.12,0,0,0,84.38,46c2,.8,3.77,1.57,6.13.61,45.71-18.69,88-42.89,123-78.19,21.37-21.51,38.36-46,46.5-75.73,10.78-39.39-2.63-80.14-33.5-102.61-29.34-21.34-71.44-21.06-98.13,1.15-19.29,16-26.06,37.5-25.09,61.92a52.83,52.83,0,0,0,.59,8.46c.67,3.28-.13,4.31-3.59,4.26q-20.74-.25-41.49,0c-3.21,0-4.15-1-4.48-4.11-5.57-52.65,21.87-120.95,98.14-135.13,75.32-14,147.06,36.23,159.29,114.4,6.57,42-3.94,80.14-25.7,115.81-22.09,36.2-52.16,64.64-86.88,88.41-33.25,22.76-68.72,41.22-107.1,53.85a29.38,29.38,0,0,1-9.29,1.49q-139.21-.08-278.45.08c-4.86,0-6.08-1.19-6-6,.37-13,.3-26,0-39-.09-4.12.93-5.25,5.16-5.24q87,.23,174,.1h6.42c-9.06-6.68-17.26-12.53-25.23-18.66a292.31,292.31,0,0,1-36-32.36c-2-2.12-4.13-1.78-6.37-1.79q-97.74,0-195.47.11c-5.17,0-6.67-1.24-6.51-6.48.41-12.82.3-25.66,0-38.48-.09-4.12,1.05-5.25,5.22-5.24q79,.21,158,.09h5.88c-2.64-5.35-5-10.07-7.31-14.83-4.91-10.23-8.88-20.84-10.85-32-.83-4.71-2.86-5.56-7.25-5.54-33,.2-66,.09-99,.12q-54.22,0-108.44.14Z" transform="translate(1614.91 -165.98)"/><path class="cls-1" d="M-24,673.88c.92-1.38.38-2.92.38-4.37q0-205.86,0-411.73c0-7.71-.48-6.54,6.78-6.56,12.83-.05,25.66.08,38.49-.09,3.27,0,4.28.89,4.23,4.2-.17,13.33-.09,26.65,0,40,0,1.56-.47,3.22.64,5.21a128.47,128.47,0,0,1,17.17-23.37c17.64-18.49,39.53-28.51,64.55-31.72,27.08-3.47,53.54-.78,78.65,10.53,31.83,14.33,53.67,38.6,66.35,70.59,22.09,55.73,20.18,110.89-9.35,163.49-22.42,39.94-58,60.67-103.69,64-18.42,1.35-36.54,0-54.23-5.77-24-7.76-42.3-22.65-55.72-43.79-1.21-1.91-2.37-3.86-3.71-6-1.17,1.87-.66,3.53-.66,5.07q-.11,84.71-.12,169.39a4.22,4.22,0,0,0,.24,1Zm145.1-161.53c34.73,0,62.34-15.84,78.66-46.38,17.32-32.38,20-66.8,11.66-102.18-5.55-23.41-16.56-43.66-35.66-59.07C142,277.49,68.3,275.31,39,339.93c-16,35.38-17.24,71.9-4.56,108.39C49,490.2,79.79,512.34,121.11,512.35Z" transform="translate(1614.91 -165.98)"/><path class="cls-1" d="M-339,673.88q0-208.64-.1-417.27c0-4.32.9-5.65,5.43-5.53,13.15.34,26.32.25,39.49,0,3.57-.06,4.45,1.1,4.41,4.52-.17,14.81-.07,29.63-.07,44.42,1.58.48,1.7-.83,2.15-1.58,19.48-32.79,48.47-50.24,86.27-53.6,29.76-2.65,58.16,1.76,84.24,16.93,29.92,17.4,49,43.79,59.39,76.22C-41.32,389.13-44,439.31-69.68,486.9c-22.55,41.74-58.57,63.73-105.91,67.19-16.91,1.23-33.6.09-49.95-4.56-26.56-7.55-46.6-23.62-60.94-47-.81-1.33-1.13-3.1-3.34-4v5q0,81.71,0,163.41c0,2.33-.1,4.66-.15,7ZM-99.62,399.73a145.33,145.33,0,0,0-5.47-40.43c-11.63-40.67-38.92-68.24-79.32-71.7-36.4-3.11-66.57,8.8-85.46,40.89-25.26,42.92-26.07,88.06-5.34,133,14.79,32,40.73,49.32,76.37,50.76,35.25,1.43,62.81-12.31,81.24-42.8C-104.67,448-99.85,424.44-99.62,399.73Z" transform="translate(1614.91 -165.98)"/><path class="cls-2" d="M1777.37,465.61l21.54-72.13q21.51-72.11,42.93-144.26c1.27-4.31,3.07-5.49,7.5-5.46q46,.35,92,0c4,0,5.6,1,6.78,5q31.28,105.61,62.91,211.13a9.43,9.43,0,0,0,2.22,4.1c1.51-7.58,3.06-15.15,4.53-22.74q18.68-96.74,37.29-193.48c.55-2.87,1.7-4,4.87-3.95q41,.22,82,0c3.76,0,4.34.8,3.4,4.48q-37.92,147.51-75.54,295.1c-.76,3-2.13,3.77-5.1,3.76-34.5-.1-69-.15-103.49.05-3.88,0-4.54-1.79-5.39-4.73q-30.06-104.94-60.25-209.83c-1.62.26-1.43,1.62-1.72,2.65Q1864,439,1834.25,542.75c-1,3.33-2.13,4.45-5.66,4.43q-51.24-.21-102.49,0c-3.64,0-5.07-1-6-4.59q-34.5-135.53-69.24-271c-2.1-8.21-4.1-16.45-6.39-24.61-.72-2.57-.17-3.15,2.36-3.14q42.24.09,84.49,0c2.81,0,3.17,1.46,3.59,3.62q12,62.22,24,124.41,8.65,44.81,17.31,89.62C1776.45,462.45,1776.77,463.4,1777.37,465.61Z" transform="translate(1614.91 -165.98)"/><path class="cls-2" d="M1495.76,553.48c-27.64-.05-54.31-4.67-79.12-17.39-34.49-17.7-57.24-45.72-69.32-82.09-14.32-43.1-13.31-86.19,4.45-128.21,17.52-41.42,48.19-68.78,91.58-81,36.93-10.39,74.16-10.13,110.68,1.65,42.89,13.83,72.67,42.59,88.12,84.75,19.69,53.71,16.53,106.35-13.46,155.77-21.4,35.25-54.13,55-94.22,63A197.15,197.15,0,0,1,1495.76,553.48Zm69.07-158.23c-.26-18.75-2.59-36.5-10.31-53.1-11.15-24-29.59-37.56-56.5-38.24-27.13-.69-46.94,11.19-59.3,35.37-7.48,14.63-10.57,30.38-11.39,46.61-1.11,22.21,1.29,43.91,11.53,64,11.58,22.78,30.19,34.82,55.93,35.16s45.09-10.83,57.38-33.61C1561.74,433.75,1564.43,414.43,1564.83,395.25Z" transform="translate(1614.91 -165.98)"/><path class="cls-2" d="M1109.42,273.81c7.66-8.51,15-15.43,23.66-20.91,15.1-9.59,31.71-14.44,49.45-15.39,24.25-1.31,47.92,1.51,70.13,11.94,32.7,15.36,50.87,42.16,59.26,76.45,3.42,14,4.45,28.25,4.46,42.59.07,57.8,0,115.61.16,173.41,0,4.72-1.53,5.32-5.63,5.29q-34.25-.29-68.48,0c-4.38,0-5.8-.86-5.78-5.59q.28-80.7.08-161.41a110.59,110.59,0,0,0-4.53-32.51c-7.42-24.18-24.08-37.23-49.33-38.57-37-2-62,18.17-69.93,56.36a171.51,171.51,0,0,0-3.5,34.7c0,47-.12,93.95.13,140.93,0,5.26-1.53,6.16-6.35,6.1-22.83-.26-45.66-.19-68.49,0-3.68,0-5.06-.61-5-4.77q.19-146.92,0-293.84c0-3.67.6-5.14,4.79-5.1,23.32.23,46.66.2,70,0,3.89,0,5.19.94,5,4.95C1109.2,256.51,1109.42,264.61,1109.42,273.81Z" transform="translate(1614.91 -165.98)"/><path class="cls-1" d="M436.26,244c39.46.3,73,10,100.84,35.23,24.29,22,38.57,49.8,45.27,81.53,8.79,41.63,4.55,81.9-15.43,119.73C544.61,522.8,509.16,546.89,461.68,553c-28,3.64-55.56,1.37-81.87-9.45-37.43-15.39-62.67-43.08-76.22-80.64-20.2-56-16-110.19,17.4-160.27,23.64-35.41,58.36-53.4,100.43-57.62C427.21,244.48,433,244.22,436.26,244Zm97.8,157.39c-.16-19-2.42-35.22-8.15-50.81-13.76-37.41-38.7-61.26-80.07-63.93-37.34-2.4-66.34,12.2-84.72,45.07-18,32.27-20.51,67-12.44,102.54,4.81,21.19,14.15,40.18,30.37,55.07,19.88,18.24,43.79,24.18,70.19,21.77,24.88-2.26,45.15-13.11,60.28-33C527.3,454.79,533.43,427.73,534.06,401.38Z" transform="translate(1614.91 -165.98)"/><path class="cls-1" d="M-430,495.1c-8.58,14.55-17.95,28-30.88,38.66-18.93,15.64-40.92,21.42-65.09,20.61-24.33-.8-47.15-6.16-66.75-21.48s-30.57-36.49-37.25-60c-6.36-22.43-8.35-45.45-8.4-68.65-.12-49.14,0-98.28-.15-147.42,0-4.76,1.45-5.79,5.89-5.69q19.25.42,38.49,0c4.13-.09,5.25,1,5.24,5.19-.14,51.14-.26,102.28,0,153.42.1,20.72,2.53,41.18,10.83,60.5,10.47,24.39,29.49,37,55.45,39.65,20.82,2.16,40.21-1.27,56.48-15.59,11.68-10.28,19-23.43,24.22-37.86,8.79-24.25,11.69-49.49,11.86-75.05.26-41.65.12-83.29,0-124.94,0-4,.78-5.43,5.1-5.33q19.23.47,38.49,0c4.58-.12,5.76,1.15,5.76,5.74q-.23,128.43-.11,256.87c0,10-.1,20,.06,30,.05,3-.48,4.39-4,4.34q-20.73-.32-41.49,0c-3.27,0-3.79-1.13-3.77-4C-429.91,527.69-430,511.4-430,495.1Z" transform="translate(1614.91 -165.98)"/><path class="cls-1" d="M-784,243.19c25,.49,48.51,4,69.58,17.23,21.74,13.61,34,34.09,41.89,57.76.64,1.91.23,2.65-1.57,3.26q-19.83,6.76-39.61,13.67c-2.06.72-2.9,0-3.69-1.93-1.93-4.6-4-9.12-6.23-13.6-10.82-22.18-28.55-34.1-53.22-35.33-15.52-.78-30.64,1.16-44.49,8.78-25.65,14.1-27,46.33-2.59,62.51,13.81,9.16,29.67,13.22,45.41,17.48,20.37,5.5,41,10,60.65,18,9.9,4,19.37,8.86,27.85,15.44,22.84,17.72,30.12,41.72,26.38,69.23-4.51,33.18-24,55.88-54.44,67.79-41.52,16.25-83.78,15.78-125-1.65-30.12-12.74-47.72-37.29-58.59-67.28-.93-2.57,0-3.54,2.25-4.35,12.55-4.39,25.12-8.74,37.57-13.42,3.09-1.16,3.67.32,4.58,2.45a120.09,120.09,0,0,0,14.35,25.63c11.39,15,26.3,24.17,44.94,27.24s36.85,2.38,54.6-4.21c24.85-9.23,34.34-29.82,29.36-52.55-2.48-11.35-10.4-18.69-20.07-24.29-13.11-7.59-27.61-11.38-42.13-15.07-21.9-5.56-44.18-9.8-65.27-18.24-12.29-4.93-23.82-11.2-33.13-20.85-15.74-16.32-19.18-36.38-16.89-57.88,4.22-39.41,30.9-61.52,66.74-70.83C-811.11,244.67-797.2,243.54-784,243.19Z" transform="translate(1614.91 -165.98)"/><path class="cls-1" d="M865.11,377.49c0-26.16-.09-52.31.09-78.46,0-4-1.16-5-5-4.93-18.16.2-36.32,0-54.48.17-3.53,0-4.94-.56-4.84-4.55.31-11.32.29-22.66,0-34-.09-3.88,1.16-4.68,4.79-4.63,9.81.15,19.62.22,29.43-.93,22.86-2.69,34-14.13,34.77-37.25.5-14.14.32-28.31.18-42.47,0-3.48.9-4.52,4.43-4.46,11.83.22,23.66.26,35.49,0,3.84-.08,4.7,1.08,4.68,4.75-.16,24.65-.09,49.31-.08,74,0,6.51,0,6.51,6.28,6.51,20.66,0,41.33.16,62-.12,4.61-.06,5.51,1.38,5.39,5.61-.29,10.82-.32,21.66,0,32.48.13,4.33-1.31,5.15-5.33,5.11-21-.2-42,0-63-.17-3.92,0-5.47.67-5.46,5.08.17,47.47,0,94.95.14,142.42,0,12,.72,23.91,4.1,35.57,5,17.4,16.81,26.42,34.39,28.79,10.28,1.38,20.61,1.17,30.93,1,3.31,0,4.23,1,4.18,4.25-.19,11.32-.06,22.65-.08,34,0,1.75.52,3.71-2.51,3.71-21.48,0-43,.54-64-5.21-29.89-8.18-45.93-28.93-52.5-58.16a172.5,172.5,0,0,1-3.94-37.14C865,424.79,865.11,401.14,865.11,377.49Z" transform="translate(1614.91 -165.98)"/><path class="cls-1" d="M660.12,295.08c5.93-9.17,11.75-18.06,19.53-25.49,17.91-17.09,40-23.06,64-23.68a221.06,221.06,0,0,1,27.94,1.14c3.7.37,5.49,1.33,5.37,5.64-.32,12.32-.25,24.66,0,37,.07,3.89-.84,4.81-4.77,4-16.57-3.59-33.28-5-50-1.39-23.65,5.14-39.42,19.77-49,41.52-7.7,17.43-11.2,35.92-12,54.79-2.14,50.61-.44,101.25-.94,151.88-.08,7.86,1,6.87-6.87,6.9-12.5.06-25-.09-37.5.09-3.48.05-4.88-.53-4.88-4.54q.2-143.67,0-287.36c0-3.56,1-4.45,4.49-4.4,13.33.2,26.66.27,40,0,4.2-.09,4.88,1.44,4.83,5.14C660,269.18,660.12,282.13,660.12,295.08Z" transform="translate(1614.91 -165.98)"/></svg>